<?xml version="1.0" encoding="utf-8"?>
<svg version="1.1" xmlns:xlink="http://www.w3.org/1999/xlink" width="390px" height="345px" xmlns="http://www.w3.org/2000/svg">
  <g transform="matrix(1 0 0 1 -522 -1407 )">
    <path d="M 522 1407  L 912 1407  L 912 1752  L 522 1752  L 522 1407  " fill-rule="nonzero" fill="#cccccc" stroke="none" />
    <path d="M 546 1431  L 888 1431  L 888 1728  L 546 1728  L 546 1431  " fill-rule="nonzero" fill="#ffffff" stroke="none" />
    <path d="M 750.675 1510.5  C 736.185 1510.5  724.8 1499.115  724.8 1484.625  C 724.8 1470.135  736.185 1458.75  750.675 1458.75  C 765.165 1458.75  776.55 1470.135  776.55 1484.625  C 776.55 1499.115  765.165 1510.5  750.675 1510.5  " fill-rule="nonzero" fill="#cccccc" stroke="none" />
    <path d="M 555 1720  L 555 1566  L 636.25 1496  L 750 1571.38461538462  L 815 1538  L 880 1571.38461538462  L 880 1720  L 555 1720  " fill-rule="nonzero" fill="#169bd5" stroke="none" />
  </g>
</svg>