<?xml version="1.0" encoding="utf-8"?>
<svg version="1.1" xmlns:xlink="http://www.w3.org/1999/xlink" width="25px" height="25px" xmlns="http://www.w3.org/2000/svg">
  <g transform="matrix(1 0 0 1 -85 -80 )">
    <path d="M 97.5 80  C 104.5 80  110 85.5  110 92.5  C 110 99.5  104.5 105  97.5 105  C 90.5 105  85 99.5  85 92.5  C 85 85.5  90.5 80  97.5 80  Z " fill-rule="nonzero" fill="#00567d" stroke="none" />
    <path d="M 97.5 80.5  C 104.22 80.5  109.5 85.78  109.5 92.5  C 109.5 99.22  104.22 104.5  97.5 104.5  C 90.78 104.5  85.5 99.22  85.5 92.5  C 85.5 85.78  90.78 80.5  97.5 80.5  Z " stroke-width="1" stroke="#00567d" fill="none" />
  </g>
</svg>