<?xml version="1.0" encoding="utf-8"?>
<svg version="1.1" xmlns:xlink="http://www.w3.org/1999/xlink" width="22px" height="19px" xmlns="http://www.w3.org/2000/svg">
  <g transform="matrix(1 0 0 1 -250 -9 )">
    <path d="M 21.6025806451613 2.62289562289562  C 21.8675268817204 2.92143658810325  22 3.28395061728395  22 3.71043771043771  C 22 4.13692480359147  21.8675268817204 4.49943883277216  21.6025806451613 4.7979797979798  L 11.3264516129032 16.3771043771044  L 9.39612903225806 18.5521885521886  C 9.13118279569893 18.8507295173962  8.8094623655914 19  8.43096774193548 19  C 8.05247311827957 19  7.73075268817204 18.8507295173962  7.4658064516129 18.5521885521886  L 5.53548387096774 16.3771043771044  L 0.39741935483871 10.5875420875421  C 0.13247311827957 10.2890011223345  0 9.92648709315376  0 9.5  C 0 9.07351290684624  0.13247311827957 8.71099887766554  0.39741935483871 8.41245791245791  L 2.32774193548387 6.23737373737374  C 2.59268817204301 5.9388327721661  2.91440860215054 5.78956228956229  3.29290322580645 5.78956228956229  C 3.67139784946237 5.78956228956229  3.99311827956989 5.9388327721661  4.25806451612903 6.23737373737374  L 8.43096774193548 10.9553872053872  L 17.741935483871 0.447811447811448  C 18.0068817204301 0.149270482603815  18.3286021505376 0  18.7070967741935 0  C 19.0855913978495 0  19.407311827957 0.149270482603815  19.6722580645161 0.447811447811448  L 21.6025806451613 2.62289562289562  Z " fill-rule="nonzero" fill="#aaaaaa" stroke="none" transform="matrix(1 0 0 1 250 9 )" />
  </g>
</svg>